<?xml version="1.0" encoding="utf-8"?>
<!-- Generator: $$$/GeneralStr/196=Adobe Illustrator 27.6.0, SVG Export Plug-In . SVG Version: 6.00 Build 0)  -->
<svg version="1.1" xmlns="http://www.w3.org/2000/svg" xmlns:xlink="http://www.w3.org/1999/xlink" x="0px" y="0px"
	 viewBox="0 0 1783.43 278.82" style="enable-background:new 0 0 1783.43 278.82;" xml:space="preserve">
<style type="text/css">
	.st0{display:none;}
	.st1{display:inline;fill:#0F1E50;}
	.st2{fill:#032E5D;}
	.st3{fill-rule:evenodd;clip-rule:evenodd;fill:#032E5D;}
</style>
<g id="Ebene_2" class="st0">
	<rect x="129.7" y="129.41" class="st1" width="24.33" height="24.33"/>
</g>
<g id="Ebene_1">
	<path class="st2" d="M410.78,5.57h38.86l-47.98,57.09l52.29,63.49h-40.62l-40.46-52.29h-0.32v52.29H341.2V5.57h31.34V55.3h0.32
		L410.78,5.57z"/>
	<path class="st2" d="M496.17,32.11v20.15h35.35v26.55h-35.35V99.6h37.26v26.55h-68.61V5.57h68.61v26.55H496.17z"/>
	<path class="st2" d="M568.45,5.57h30.87l24.46,64.45L649.7,5.57h31.18l18.23,120.58h-31.34l-8.79-69.41h-0.32l-28.95,69.41h-12.47
		l-27.67-69.41h-0.32l-10.07,69.41h-31.18L568.45,5.57z"/>
	<path class="st2" d="M714.78,5.57h47.98c6.5,0,12.45,0.77,17.83,2.32c5.38,1.54,10,3.91,13.83,7.11s6.82,7.3,8.96,12.32
		c2.13,5.01,3.2,10.98,3.2,17.91c0,14.29-3.68,24.68-11.04,31.18c-7.36,6.51-17.91,9.76-31.67,9.76h-17.75v39.98h-31.34V5.57z
		 M746.13,60.9h5.28c2.88,0,5.65-0.08,8.31-0.25c2.67-0.16,5.06-0.69,7.19-1.6c2.13-0.91,3.84-2.34,5.12-4.32
		c1.28-1.97,1.92-4.82,1.92-8.56c0-3.83-0.62-6.8-1.85-8.87c-1.23-2.08-2.85-3.6-4.88-4.56c-2.02-0.96-4.43-1.52-7.19-1.68
		c-2.78-0.16-5.65-0.24-8.63-0.24h-5.28V60.9z"/>
	<path class="st2" d="M854.24,32.11v20.15h35.35v26.55h-35.35V99.6h37.26v26.55h-68.61V5.57h68.61v26.55H854.24z"/>
	<path class="st2" d="M913.25,5.57h31.34l57.41,73.72h0.32V5.57h31.35v120.58h-31.35l-57.41-73.89h-0.32v73.89h-31.34V5.57z"/>
	<path class="st2" d="M1183.36,5.57h38.85l-47.98,57.09l52.29,63.49h-40.61l-40.46-52.29h-0.32v52.29h-31.34V5.57h31.34V55.3h0.32
		L1183.36,5.57z"/>
	<path class="st2" d="M1337.68,126.15h-39.02l-29.59-46.38h-0.32v46.38h-31.34V5.57h46.84c5.98,0,11.53,0.72,16.64,2.16
		c5.11,1.44,9.53,3.67,13.27,6.71c3.72,3.04,6.65,6.91,8.79,11.6s3.2,10.23,3.2,16.63c0,4.16-0.56,8.13-1.68,11.91
		c-1.12,3.79-2.79,7.2-5.03,10.23c-2.25,3.04-5.01,5.6-8.33,7.68c-3.3,2.08-7.08,3.5-11.34,4.24L1337.68,126.15z M1268.75,59.61
		h3.05c2.56,0,5.11-0.15,7.67-0.47c2.56-0.32,4.88-1.02,6.96-2.08c2.08-1.07,3.78-2.58,5.11-4.55c1.34-1.97,2-4.61,2-7.92
		c0-3.3-0.66-5.94-2-7.91c-1.34-1.97-3.03-3.49-5.11-4.55c-2.08-1.07-4.4-1.76-6.96-2.08c-2.56-0.32-5.11-0.47-7.67-0.47h-3.05
		V59.61z"/>
	<path class="st2" d="M1379.24,105.2l-8.31,20.95h-33.27l46.39-120.58h34.21l45.42,120.58h-33.42l-7.84-20.95H1379.24z
		 M1401.17,42.83h-0.32l-12.97,38.38h26.07L1401.17,42.83z"/>
	<path class="st2" d="M1580.45,5.57v67.8c0,3.84-0.12,7.68-0.32,11.52c-0.22,3.83-0.73,7.57-1.52,11.19
		c-0.8,3.62-2.05,7.12-3.76,10.48c-1.71,3.35-4.05,6.48-7.04,9.35c-2.56,2.45-5.4,4.53-8.55,6.24c-3.15,1.7-6.45,3.09-9.92,4.16
		c-3.45,1.07-7.03,1.84-10.72,2.32c-3.67,0.48-7.26,0.72-10.78,0.72s-7.13-0.24-10.8-0.72c-3.67-0.48-7.25-1.25-10.72-2.32
		c-3.47-1.07-6.77-2.45-9.92-4.16c-3.13-1.71-5.99-3.78-8.55-6.24c-2.98-2.88-5.33-6-7.04-9.35c-1.69-3.36-2.95-6.86-3.76-10.48
		c-0.8-3.62-1.3-7.36-1.51-11.19c-0.22-3.84-0.32-7.68-0.32-11.52V5.57h31.34v63.48c0,3.94,0.17,7.86,0.49,11.76
		c0.32,3.89,1.17,7.41,2.56,10.56c1.39,3.14,3.52,5.67,6.4,7.59c2.88,1.92,6.82,2.88,11.83,2.88c5.01,0,8.96-0.96,11.83-2.88
		c2.88-1.92,5.01-4.45,6.4-7.59c1.37-3.15,2.23-6.66,2.56-10.56c0.32-3.89,0.47-7.81,0.47-11.76V5.57H1580.45z"/>
	<path class="st2" d="M1668.87,36.59c-2.88-2.45-6.09-4.4-9.67-5.84c-3.57-1.44-7.28-2.16-11.12-2.16c-1.49,0-3.01,0.22-4.55,0.64
		c-1.54,0.42-2.98,1.07-4.32,1.91c-1.34,0.85-2.42,1.9-3.28,3.12c-0.85,1.23-1.27,2.69-1.27,4.39c0,1.82,0.47,3.34,1.44,4.56
		s2.13,2.29,3.52,3.2s2.88,1.65,4.47,2.23c1.61,0.59,3.1,1.1,4.49,1.52l7.99,2.4c4.16,1.28,8.06,2.8,11.68,4.56
		c3.62,1.75,6.77,3.91,9.43,6.48c2.66,2.56,4.77,5.62,6.31,9.19c1.54,3.57,2.32,7.81,2.32,12.71c0,5.98-0.88,11.86-2.64,17.67
		c-1.76,5.81-5.03,10.74-9.84,14.79c-4.79,4.05-10.17,6.96-16.15,8.72c-5.98,1.76-11.99,2.64-18.06,2.64
		c-7.69,0-15.12-1.2-22.31-3.6c-7.19-2.4-13.88-5.78-20.08-10.16l13.44-25.27c3.94,3.41,8.21,6.34,12.8,8.79
		c4.57,2.45,9.58,3.68,15.03,3.68c1.81,0,3.62-0.25,5.43-0.72c1.81-0.48,3.44-1.2,4.88-2.16c1.44-0.96,2.61-2.22,3.52-3.76
		c0.9-1.55,1.35-3.39,1.35-5.52c0-2.24-0.66-4.11-2-5.6c-1.34-1.49-2.98-2.77-4.96-3.83c-1.96-1.07-4.05-1.92-6.23-2.56
		c-2.18-0.64-4.13-1.23-5.84-1.76c-4.91-1.39-9.36-2.85-13.36-4.4c-4-1.54-7.43-3.54-10.31-5.99c-2.88-2.45-5.1-5.54-6.64-9.28
		c-1.56-3.73-2.32-8.52-2.32-14.39c0-6.08,1.03-11.62,3.11-16.63c2.08-5.01,4.96-9.28,8.63-12.8c3.67-3.51,8.06-6.24,13.12-8.15
		c5.06-1.92,10.63-2.88,16.71-2.88c2.98,0,6.16,0.24,9.51,0.72c3.35,0.47,6.65,1.14,9.92,2c3.25,0.85,6.45,1.9,9.58,3.11
		c3.15,1.23,6.06,2.59,8.72,4.08L1668.87,36.59z"/>
	<path class="st2" d="M1734.91,32.11v20.15h35.35v26.55h-35.35V99.6h37.26v26.55h-68.6V5.57h68.6v26.55H1734.91z"/>
	<g>
		<polygon class="st3" points="9.56,5.61 79.5,5.61 79.5,273.21 9.56,273.21 9.56,5.61 		"/>
		<polygon class="st3" points="97.37,5.62 186.17,5.62 274.97,5.62 186.17,94.42 97.37,183.23 97.37,94.42 97.37,5.62 		"/>
		<path class="st3" d="M203.9,130.87c39.19,0,71.16,31.95,71.16,71.18c0,39.17-31.97,71.13-71.16,71.13
			c-39.19,0-71.15-31.96-71.15-71.13C132.75,162.82,164.72,130.87,203.9,130.87L203.9,130.87z"/>
	</g>
	<polygon class="st2" points="355.52,269.38 341.2,269.38 341.2,162.61 355.52,162.61 355.52,269.38 	"/>
	<polygon class="st2" points="384.45,157.86 470.63,241.84 470.63,162.96 484.94,162.96 484.94,274.12 398.76,190.15 398.76,269.73 
		384.45,269.73 384.45,157.86 	"/>
	<path class="st2" d="M618.78,215.57v4.25c0,7.36-1.32,14.19-3.96,20.46c-2.64,6.28-6.37,11.75-11.19,16.43
		c-4.82,4.67-10.56,8.33-17.21,10.98c-6.65,2.64-13.99,3.96-22,3.96c-8.02,0-15.56-1.49-22.61-4.46
		c-7.05-2.97-13.19-7.01-18.42-12.11c-5.23-5.1-9.37-11-12.41-17.7c-3.04-6.7-4.57-13.73-4.57-21.1c0-7.65,1.55-14.87,4.64-21.67
		c3.1-6.8,7.33-12.75,12.71-17.84c5.38-5.1,11.7-9.11,18.96-12.04c7.26-2.93,15-4.39,23.22-4.39c8.93,0,17.53,1.79,25.81,5.38
		c8.27,3.59,15.25,8.69,20.94,15.29l-10.05,8.92c-4.16-5.19-9.47-9.39-15.91-12.6c-6.45-3.21-13.17-4.82-20.17-4.82
		c-6.39,0-12.39,1.13-17.97,3.4c-5.58,2.26-10.43,5.36-14.54,9.28c-4.11,3.92-7.36,8.52-9.74,13.81c-2.39,5.29-3.58,10.9-3.58,16.85
		c0,5.57,1.17,10.98,3.5,16.21c2.33,5.24,5.5,9.89,9.52,13.95c4.01,4.06,8.73,7.32,14.16,9.77c5.43,2.46,11.24,3.68,17.43,3.68
		c4.47,0,8.91-0.83,13.32-2.48c4.42-1.65,8.4-3.92,11.95-6.8c3.55-2.88,6.45-6.25,8.68-10.12c2.23-3.87,3.45-7.98,3.65-12.32h-29.69
		v-12.18H618.78L618.78,215.57z"/>
	<polygon class="st2" points="641.77,162.61 703.44,162.61 703.44,174.79 656.09,174.79 656.09,204.67 702.07,204.67 702.07,216.84 
		656.09,216.84 656.09,257.2 703.44,257.2 703.44,269.38 641.77,269.38 641.77,162.61 	"/>
	<polygon class="st2" points="728.56,157.86 814.74,241.84 814.74,162.96 829.06,162.96 829.06,274.12 742.87,190.15 742.87,269.73 
		728.56,269.73 728.56,157.86 	"/>
	<polygon class="st2" points="872.15,269.38 857.83,269.38 857.83,162.61 872.15,162.61 872.15,269.38 	"/>
	<polygon class="st2" points="902.45,162.61 964.11,162.61 964.11,174.79 916.76,174.79 916.76,204.67 962.74,204.67 962.74,216.84 
		916.76,216.84 916.76,257.2 964.11,257.2 964.11,269.38 902.45,269.38 902.45,162.61 	"/>
	<path class="st2" d="M1002.94,161.47v63.01c0,4.35,0.4,8.55,1.22,12.6c0.81,4.06,2.26,7.65,4.34,10.76
		c2.08,3.12,4.93,5.59,8.53,7.43c3.6,1.84,8.14,2.76,13.63,2.76c5.48,0,10.02-0.92,13.63-2.76c3.6-1.84,6.45-4.32,8.53-7.43
		c2.08-3.11,3.53-6.7,4.34-10.76c0.81-4.06,1.22-8.26,1.22-12.6v-63.01h14.31v67.55c0,5.85-0.96,11.31-2.89,16.35
		c-1.93,5.05-4.7,9.44-8.3,13.17c-3.61,3.73-8,6.65-13.17,8.78c-5.18,2.12-11.07,3.18-17.66,3.18c-6.6,0-12.49-1.06-17.66-3.18
		c-5.18-2.13-9.57-5.05-13.17-8.78c-3.6-3.73-6.37-8.12-8.3-13.17c-1.93-5.05-2.89-10.5-2.89-16.35v-67.55H1002.94L1002.94,161.47z"
		/>
	<path class="st2" d="M1115.62,213.16h4.57c3.65,0,7.28-0.21,10.88-0.64s6.85-1.35,9.75-2.76c2.89-1.42,5.25-3.4,7.08-5.95
		c1.83-2.55,2.74-5.95,2.74-10.19c0-4.15-0.97-7.48-2.9-9.98c-1.93-2.5-4.39-4.44-7.38-5.81c-2.99-1.37-6.35-2.27-10.05-2.69
		c-3.71-0.43-7.34-0.64-10.89-0.64h-3.8V213.16L1115.62,213.16z M1172.71,269.38h-17.36l-33.8-45.17h-5.94v45.17h-14.32V162.61
		h17.36c5.07,0,10.25,0.24,15.53,0.71c5.28,0.47,10.2,1.89,14.77,4.25c4.87,2.65,8.6,6.28,11.19,10.9
		c2.59,4.63,3.88,9.49,3.88,14.58c0,3.87-0.66,7.51-1.98,10.9c-1.32,3.4-3.18,6.42-5.56,9.06c-2.38,2.65-5.28,4.84-8.68,6.58
		c-3.4,1.75-7.19,2.86-11.35,3.33L1172.71,269.38L1172.71,269.38z"/>
	<polygon class="st2" points="1192.81,162.61 1254.48,162.61 1254.48,174.79 1207.12,174.79 1207.12,204.67 1253.11,204.67 
		1253.11,216.84 1207.12,216.84 1207.12,257.2 1254.48,257.2 1254.48,269.38 1192.81,269.38 1192.81,162.61 	"/>
	<path class="st2" d="M1438.41,215.57v4.25c0,7.36-1.32,14.19-3.96,20.46c-2.64,6.28-6.37,11.75-11.19,16.43
		c-4.82,4.67-10.56,8.33-17.2,10.98c-6.65,2.64-13.99,3.96-22,3.96s-15.56-1.49-22.61-4.46c-7.05-2.97-13.19-7.01-18.42-12.11
		c-5.22-5.1-9.36-11-12.41-17.7c-3.05-6.7-4.57-13.73-4.57-21.1c0-7.65,1.55-14.87,4.64-21.67c3.1-6.8,7.34-12.75,12.72-17.84
		c5.38-5.1,11.7-9.11,18.95-12.04c7.26-2.93,15-4.39,23.22-4.39c8.93,0,17.53,1.79,25.81,5.38c8.27,3.59,15.25,8.69,20.94,15.29
		l-10.05,8.92c-4.16-5.19-9.47-9.39-15.91-12.6c-6.45-3.21-13.17-4.82-20.17-4.82c-6.4,0-12.39,1.13-17.97,3.4
		c-5.58,2.26-10.43,5.36-14.54,9.28c-4.11,3.92-7.36,8.52-9.75,13.81c-2.38,5.29-3.58,10.9-3.58,16.85c0,5.57,1.17,10.98,3.51,16.21
		c2.33,5.24,5.51,9.89,9.52,13.95c4.01,4.06,8.73,7.32,14.16,9.77c5.43,2.46,11.24,3.68,17.44,3.68c4.46,0,8.91-0.83,13.32-2.48
		c4.42-1.65,8.4-3.92,11.95-6.8c3.55-2.88,6.44-6.25,8.68-10.12c2.23-3.87,3.45-7.98,3.66-12.32h-29.69v-12.18H1438.41
		L1438.41,215.57z"/>
	<polygon class="st2" points="1480.89,199.99 1480.59,199.99 1467.19,270.51 1452.42,270.51 1475.87,159.21 1515.3,243.32 
		1554.74,159.21 1578.19,270.51 1563.42,270.51 1550.02,199.99 1549.71,199.99 1515.3,272.78 1480.89,199.99 	"/>
	<path class="st2" d="M1612.91,257.48h10.96c3.35,0,6.62-0.26,9.82-0.78c3.2-0.52,6.09-1.49,8.68-2.9c2.59-1.41,4.67-3.35,6.24-5.8
		c1.57-2.45,2.36-5.57,2.36-9.35c0-3.77-0.91-6.84-2.74-9.2c-1.83-2.36-4.19-4.2-7.08-5.52c-2.9-1.32-6.07-2.22-9.52-2.69
		c-3.46-0.47-6.75-0.71-9.9-0.71h-8.83V257.48L1612.91,257.48z M1612.91,209.9h3.65c3.35,0,6.52-0.21,9.52-0.64
		c2.99-0.42,5.61-1.27,7.84-2.55c2.23-1.27,4.01-3.07,5.33-5.38c1.32-2.31,1.98-5.4,1.98-9.28c0-3.77-0.63-6.8-1.9-9.06
		c-1.27-2.27-3.02-4.04-5.25-5.31c-2.23-1.27-4.82-2.12-7.76-2.55c-2.95-0.43-6.09-0.64-9.44-0.64h-3.96V209.9L1612.91,209.9z
		 M1598.59,162.61h14.01c5.38,0,10.61,0.4,15.68,1.2c5.07,0.8,9.57,2.29,13.48,4.46c3.91,2.17,7.03,5.15,9.36,8.92
		c2.33,3.78,3.5,8.69,3.5,14.73c0,1.98-0.28,3.99-0.84,6.02c-0.56,2.03-1.37,3.97-2.44,5.81c-1.06,1.84-2.36,3.49-3.88,4.96
		c-1.52,1.46-3.25,2.62-5.18,3.47v0.28c3.35,0.57,6.45,1.7,9.29,3.4c2.84,1.7,5.28,3.8,7.31,6.3c2.03,2.5,3.6,5.24,4.72,8.21
		c1.12,2.97,1.68,6.02,1.68,9.13c0,5.38-1.12,9.96-3.35,13.74c-2.24,3.78-5.23,6.87-8.99,9.28c-3.76,2.41-8.02,4.16-12.79,5.24
		c-4.77,1.09-9.69,1.63-14.77,1.63h-26.8V162.61L1598.59,162.61z"/>
	<polygon class="st2" points="1757.86,205.66 1757.86,162.61 1772.17,162.61 1772.17,269.38 1757.86,269.38 1757.86,218.12 
		1703.19,218.12 1703.19,269.38 1688.88,269.38 1688.88,162.61 1703.19,162.61 1703.19,205.66 1757.86,205.66 	"/>
</g>
</svg>
