<?xml version="1.0" standalone="no"?>
<!DOCTYPE svg PUBLIC "-//W3C//DTD SVG 1.1//EN" "http://www.w3.org/Graphics/SVG/1.1/DTD/svg11.dtd">
<!--Generator: Xara Designer (www.xara.com), SVG filter version: 3.0.2.3-->
<svg stroke-width="0.501" stroke-linejoin="bevel" fill-rule="evenodd" xmlns:xlink="http://www.w3.org/1999/xlink" xmlns="http://www.w3.org/2000/svg" version="1.1" overflow="visible" width="68.25pt" height="63.75pt" viewBox="0 0 68.25 63.75">
 <defs>
  <marker id="DefaultArrow2" markerUnits="strokeWidth" viewBox="0 0 1 1" markerWidth="1" markerHeight="1" overflow="visible" orient="auto">
   <!-- REF_ARROW_STRAIGHT (-2) -->
   <g transform="scale(0.0092592592)">
    <!-- 1/108 -->
    <path d="M -9 54 L -9 -54 L 117 0 z"/>
   </g>
  </marker>
  <marker id="DefaultArrow3" markerUnits="strokeWidth" viewBox="0 0 1 1" markerWidth="1" markerHeight="1" overflow="visible" orient="auto">
   <!-- REF_ARROW_ANGLED -->
   <g transform="scale(0.0092592592)">
    <path d="M -27 54 L -9 0 L -27 -54 L 135 0 z"/>
   </g>
  </marker>
  <marker id="DefaultArrow4" markerUnits="strokeWidth" viewBox="0 0 1 1" markerWidth="1" markerHeight="1" overflow="visible" orient="auto">
   <!-- REF_ARROW_ROUNDED -->
   <g transform="scale(0.0092592592)">
    <path d="M -9,0 L -9,-45 C -9,-51.708 2.808,-56.580 9,-54 L 117,-9 C 120.916,-7.369 126.000,-4.242 126,0 C 126,4.242 120.916,7.369 117,9 L 9,54 C 2.808,56.580 -9,51.708 -9,45 z"/>
   </g>
  </marker>
  <marker id="DefaultArrow5" markerUnits="strokeWidth" viewBox="0 0 1 1" markerWidth="1" markerHeight="1" overflow="visible" orient="auto">
   <!-- REF_ARROW_SPOT -->
   <g transform="scale(0.0092592592)">
    <path d="M -54, 0 C -54,29.807 -29.807,54 0,54 C 29.807,54 54,29.807 54,0 C 54,-29.807 29.807,-54 0,-54 C -29.807,-54 -54,-29.807 -54,0 z"/>
   </g>
  </marker>
  <marker id="DefaultArrow6" markerUnits="strokeWidth" viewBox="0 0 1 1" markerWidth="1" markerHeight="1" overflow="visible" orient="auto">
   <!-- REF_ARROW_DIAMOND -->
   <g transform="scale(0.0092592592)">
    <path d="M -63,0 L 0,63 L 63,0 L 0,-63 z"/>
   </g>
  </marker>
  <marker id="DefaultArrow7" markerUnits="strokeWidth" viewBox="0 0 1 1" markerWidth="1" markerHeight="1" overflow="visible" orient="auto">
   <!-- REF_ARROW_FEATHER -->
   <g transform="scale(0.0092592592)">
    <path d="M 18,-54 L 108,-54 L 63,0 L 108,54 L 18, 54 L -36,0 z"/>
   </g>
  </marker>
  <marker id="DefaultArrow8" markerUnits="strokeWidth" viewBox="0 0 1 1" markerWidth="1" markerHeight="1" overflow="visible" orient="auto">
   <!-- REF_ARROW_FEATHER2 -->
   <g transform="scale(0.0092592592)">
    <path d="M -36,0 L 18,-54 L 54,-54 L 18,-18 L 27,-18 L 63,-54 L 99,-54 L 63,-18 L 72,-18 L 108,-54 L 144,-54 L 90,0 L 144,54 L 108,54 L 72,18 L 63,18 L 99,54 L 63,54 L 27,18 L 18,18 L 54,54 L 18,54 z"/>
   </g>
  </marker>
  <marker id="DefaultArrow9" markerUnits="strokeWidth" viewBox="0 0 1 1" markerWidth="1" markerHeight="1" overflow="visible" orient="auto">
   <!-- REF_ARROW_HOLLOWDIAMOND -->
   <g transform="scale(0.0092592592)">
    <path d="M 0,45 L -45,0 L 0, -45 L 45, 0 z M 0, 63 L-63, 0 L 0, -63 L 63, 0 z"/>
   </g>
  </marker>
  <filter id="StainedFilter">
   <feBlend mode="multiply" in2="BackgroundImage" in="SourceGraphic" result="blend"/>
   <feComposite in="blend" in2="SourceAlpha" operator="in" result="comp"/>
  </filter>
  <filter id="BleachFilter">
   <feBlend mode="screen" in2="BackgroundImage" in="SourceGraphic" result="blend"/>
   <feComposite in="blend" in2="SourceAlpha" operator="in" result="comp"/>
  </filter>
  <filter id="InvertTransparencyBitmapFilter">
   <feComponentTransfer>
    <feFuncR type="gamma" amplitude="1.055" exponent=".416666666" offset="-0.055"/>
    <feFuncG type="gamma" amplitude="1.055" exponent=".416666666" offset="-0.055"/>
    <feFuncB type="gamma" amplitude="1.055" exponent=".416666666" offset="-0.055"/>
   </feComponentTransfer>
   <feComponentTransfer>
    <feFuncR type="linear" slope="-1" intercept="1"/>
    <feFuncG type="linear" slope="-1" intercept="1"/>
    <feFuncB type="linear" slope="-1" intercept="1"/>
    <feFuncA type="linear" slope="1" intercept="0"/>
   </feComponentTransfer>
   <feComponentTransfer>
    <feFuncR type="gamma" amplitude="1" exponent="2.4" offset="0"/>
    <feFuncG type="gamma" amplitude="1" exponent="2.4" offset="0"/>
    <feFuncB type="gamma" amplitude="1" exponent="2.4" offset="0"/>
   </feComponentTransfer>
  </filter>
 </defs>
 <g id="Document" fill="none" stroke="black" font-family="Times New Roman" font-size="16" transform="scale(1 -1)">
  <g id="Spread" transform="translate(0 -63.75)">
   <g id="Layer 1">
    <path d="M 30.364,29.034 C 23.978,29.034 18.802,34.214 18.802,40.605 C 18.802,46.996 23.978,52.178 30.364,52.178 C 33.993,52.178 37.23,50.504 39.35,47.887 C 42.023,50.054 45.107,52.553 48.336,55.17 C 44.096,60.403 37.621,63.75 30.364,63.75 C 17.592,63.75 7.239,53.388 7.239,40.605 C 7.239,27.823 17.592,17.461 30.364,17.461 C 37.621,17.461 44.096,20.807 48.335,26.04 L 39.35,33.323 C 37.23,30.706 33.993,29.034 30.364,29.034 L 30.364,29.034 Z" fill-rule="nonzero" stroke="none" fill="#0082de" marker-start="none" marker-end="none"/>
    <path d="M 39.35,33.323 C 40.961,35.312 41.927,37.846 41.927,40.605 C 41.927,43.365 40.961,45.899 39.35,47.887 C 34.05,43.592 30.364,40.605 30.364,40.605 L 39.35,33.323 Z" fill-rule="nonzero" stroke="none" fill="#00ace8" marker-start="none" marker-end="none"/>
    <path d="M 65.053,40.605 C 65.053,48.885 62.156,56.487 57.323,62.453 C 54.34,60.036 51.278,57.554 48.336,55.17 C 51.558,51.193 53.49,46.125 53.49,40.605 C 53.49,35.086 51.558,30.018 48.335,26.04 L 57.322,18.757 C 62.156,24.723 65.053,32.325 65.053,40.605 L 65.053,40.605 Z" fill-rule="nonzero" stroke="none" fill="#00ace8" marker-start="none" marker-end="none"/>
    <path d="M 48.336,55.17 C 45.107,52.553 42.023,50.054 39.35,47.887 C 40.961,45.899 41.927,43.365 41.927,40.605 C 41.927,37.846 40.961,35.312 39.35,33.322 L 48.335,26.04 C 51.558,30.018 53.49,35.086 53.49,40.605 C 53.49,46.125 51.558,51.193 48.336,55.17 L 48.336,55.17 Z" fill-rule="nonzero" stroke="none" fill="#005499" marker-start="none" marker-end="none"/>
    <path d="M 28.273,2.936 C 27.756,2.474 27.102,2.266 26.357,2.229 C 25.605,2.249 24.925,2.503 24.411,2.963 C 23.876,3.455 23.612,4.097 23.616,4.877 C 23.621,5.643 23.894,6.293 24.421,6.796 C 24.936,7.288 25.577,7.549 26.345,7.57 C 27.074,7.567 27.693,7.335 28.24,6.942 L 29.899,8.623 C 29.256,9.16 28.51,9.517 27.66,9.687 C 27.324,9.757 26.975,9.794 26.613,9.802 C 26.603,9.802 26.593,9.802 26.583,9.802 C 26.518,9.804 26.454,9.806 26.388,9.805 C 26.378,9.805 26.369,9.804 26.359,9.804 C 26.349,9.804 26.339,9.804 26.33,9.804 C 26.264,9.804 26.2,9.8 26.135,9.797 C 26.125,9.797 26.114,9.797 26.105,9.796 C 25.742,9.779 25.392,9.734 25.056,9.657 C 24.128,9.45 23.319,9.027 22.63,8.389 C 21.643,7.463 21.139,6.287 21.13,4.848 C 21.121,3.409 21.611,2.245 22.6,1.342 C 22.931,1.04 23.291,0.79 23.679,0.592 L 23.679,0.592 C 24.442,0.211 25.301,0.019 26.256,0.03 C 26.27,0.031 26.284,0.032 26.298,0.032 C 26.313,0.032 26.327,0.031 26.341,0.031 C 27.295,0.043 28.113,0.3 28.881,0.699 L 28.882,0.699 C 29.228,0.883 29.551,1.109 29.853,1.373 L 28.273,2.936 Z" fill-rule="nonzero" stroke="none" fill="#000000" marker-start="none" marker-end="none"/>
    <path d="M 66.623,2.936 C 66.107,2.474 65.453,2.266 64.708,2.229 C 63.955,2.249 63.275,2.503 62.761,2.963 C 62.227,3.455 61.962,4.097 61.967,4.877 C 61.972,5.643 62.244,6.293 62.772,6.796 C 63.286,7.288 63.928,7.549 64.696,7.57 C 65.425,7.567 66.043,7.335 66.591,6.942 L 68.25,8.623 C 67.606,9.16 66.861,9.517 66.011,9.687 C 65.675,9.757 65.326,9.794 64.964,9.802 C 64.954,9.802 64.944,9.802 64.933,9.802 C 64.869,9.804 64.804,9.806 64.739,9.805 C 64.729,9.805 64.719,9.804 64.709,9.804 C 64.7,9.804 64.69,9.804 64.68,9.804 C 64.614,9.804 64.55,9.8 64.485,9.797 C 64.475,9.797 64.465,9.797 64.455,9.796 C 64.093,9.779 63.743,9.734 63.407,9.657 C 62.478,9.45 61.67,9.027 60.981,8.389 C 59.994,7.463 59.49,6.287 59.481,4.848 C 59.472,3.409 59.962,2.245 60.951,1.342 C 61.281,1.04 61.641,0.79 62.03,0.592 L 62.03,0.592 C 62.793,0.211 63.652,0.019 64.606,0.03 C 64.621,0.031 64.635,0.032 64.649,0.032 C 64.663,0.032 64.677,0.031 64.692,0.031 C 65.646,0.043 66.464,0.3 67.232,0.699 L 67.232,0.699 C 67.578,0.883 67.901,1.109 68.203,1.373 L 66.623,2.936 Z" fill-rule="nonzero" stroke="none" fill="#000000" marker-start="none" marker-end="none"/>
    <path d="M 35.378,2.258 C 36.098,2.258 36.682,2.516 37.158,3.019 C 37.634,3.522 37.878,4.175 37.878,4.95 C 37.878,5.725 37.634,6.378 37.158,6.88 C 36.682,7.384 36.098,7.642 35.378,7.642 C 34.658,7.642 34.06,7.384 33.585,6.88 C 33.109,6.378 32.878,5.725 32.878,4.95 C 32.878,4.175 33.109,3.522 33.585,3.019 C 34.06,2.516 34.658,2.258 35.378,2.258 Z M 35.378,0 C 33.938,0 32.742,0.476 31.791,1.442 C 30.84,2.407 30.364,3.577 30.364,4.95 C 30.364,6.323 30.84,7.493 31.791,8.459 C 32.742,9.424 33.938,9.9 35.378,9.9 C 36.818,9.9 38.014,9.424 38.965,8.459 C 39.916,7.493 40.392,6.323 40.392,4.95 C 40.392,3.577 39.916,2.407 38.965,1.442 C 38.014,0.476 36.818,0 35.378,0 L 35.378,0 Z" fill-rule="nonzero" stroke="none" fill="#000000" marker-start="none" marker-end="none"/>
    <path d="M 14.681,2.258 C 15.401,2.258 15.986,2.516 16.461,3.019 C 16.937,3.522 17.181,4.175 17.181,4.95 C 17.181,5.725 16.937,6.378 16.461,6.88 C 15.986,7.384 15.401,7.642 14.681,7.642 C 13.961,7.642 13.363,7.384 12.888,6.88 C 12.412,6.378 12.181,5.725 12.181,4.95 C 12.181,4.175 12.412,3.522 12.888,3.019 C 13.363,2.516 13.961,2.258 14.681,2.258 Z M 14.681,0 C 13.241,0 12.045,0.476 11.094,1.442 C 10.143,2.407 9.667,3.577 9.667,4.95 C 9.667,6.323 10.143,7.493 11.094,8.459 C 12.045,9.424 13.241,9.9 14.681,9.9 C 16.122,9.9 17.317,9.424 18.268,8.459 C 19.219,7.493 19.695,6.323 19.695,4.95 C 19.695,3.577 19.219,2.407 18.268,1.442 C 17.317,0.476 16.122,0 14.681,0 L 14.681,0 Z" fill-rule="nonzero" stroke="none" fill="#000000" marker-start="none" marker-end="none"/>
    <path d="M 49.188,9.687 L 41.022,9.687 L 41.022,7.538 L 43.376,7.538 C 43.652,7.538 43.876,7.314 43.876,7.038 L 43.876,0.168 L 46.321,0.168 L 46.321,7.038 C 46.321,7.314 46.545,7.538 46.821,7.538 L 49.188,7.538 L 49.188,9.687 Z" fill-rule="nonzero" stroke="none" fill="#000000" marker-start="none" marker-end="none"/>
    <path d="M 58.172,2.317 L 53.905,2.317 C 53.628,2.317 53.404,2.54 53.404,2.817 L 53.404,3.97 L 57.049,3.97 L 57.049,5.975 L 53.404,5.976 L 53.404,7.038 C 53.404,7.314 53.628,7.538 53.905,7.538 L 58.064,7.539 L 58.064,9.687 L 50.958,9.687 L 50.958,0.168 L 58.172,0.168 L 58.172,2.317 Z" fill-rule="nonzero" stroke="none" fill="#000000" marker-start="none" marker-end="none"/>
    <path d="M 5.238,5.876 C 3.338,6.231 3.124,6.601 3.152,6.995 C 3.195,7.433 3.709,7.65 4.435,7.675 C 5.211,7.701 6.132,7.561 7.089,7.046 L 8.6,8.696 C 7.432,9.453 5.923,9.843 4.392,9.791 C 2.114,9.714 0.638,8.455 0.697,6.726 L 0.698,6.7 C 0.753,5.071 2.066,4.323 4.196,3.926 C 6.073,3.575 6.3,3.253 6.312,2.913 L 6.313,2.887 C 6.328,2.454 5.579,2.165 4.74,2.136 C 3.683,2.099 2.464,2.36 1.497,3.093 L 1.482,3.095 L 0,1.46 L 0.124,1.369 C 1.409,0.44 3.058,-0.039 4.767,0.02 C 7.266,0.104 8.807,1.471 8.748,3.167 L 8.747,3.193 C 8.691,4.813 7.347,5.472 5.238,5.876 L 5.238,5.876 Z" fill-rule="nonzero" stroke="none" fill="#000000" marker-start="none" marker-end="none"/>
   </g>
  </g>
 </g>
</svg>
