<?xml version="1.0" encoding="UTF-8" standalone="no"?>
<svg
   id="Ebene_1"
   data-name="Ebene 1"
   viewBox="0 0 537.01336 213.75238"
   version="1.1"
   sodipodi:docname="ZI_logo.svg"
   width="537.01337"
   height="213.75238"
   inkscape:version="1.3 (0e150ed6c4, 2023-07-21)"
   xmlns:inkscape="http://www.inkscape.org/namespaces/inkscape"
   xmlns:sodipodi="http://sodipodi.sourceforge.net/DTD/sodipodi-0.dtd"
   xmlns="http://www.w3.org/2000/svg"
   xmlns:svg="http://www.w3.org/2000/svg">
  <sodipodi:namedview
     id="namedview13"
     pagecolor="#505050"
     bordercolor="#eeeeee"
     borderopacity="1"
     inkscape:showpageshadow="0"
     inkscape:pageopacity="0"
     inkscape:pagecheckerboard="0"
     inkscape:deskcolor="#505050"
     inkscape:zoom="0.94969699"
     inkscape:cx="249.0268"
     inkscape:cy="265.34779"
     inkscape:window-width="1350"
     inkscape:window-height="1212"
     inkscape:window-x="2180"
     inkscape:window-y="149"
     inkscape:window-maximized="0"
     inkscape:current-layer="Ebene_1" />
  <defs
     id="defs1">
    <style
       id="style1">&#10;      .cls-1 {&#10;        fill: #06768e;&#10;      }&#10;&#10;      .cls-2 {&#10;        fill: #737d85;&#10;      }&#10;    </style>
  </defs>
  <rect
     style="opacity:1;fill:#ffffff;fill-opacity:1;stroke:#232323;stroke-width:0;stroke-linejoin:round;stroke-dasharray:none;stroke-opacity:0"
     id="rect13"
     width="537.01337"
     height="213.75238"
     x="5e-07"
     y="5e-07" />
  <path
     id="SVGID"
     class="cls-2"
     d="m 320.02781,200.71374 c 5,-0.73 8.45,-4.78 8.97,-9.19 0.37,0.66 0.66,1.91 0.66,3.01 0,3.9 -3.16,6.47 -7.06,6.47 -1.25,0 -2.28,-0.22 -2.57,-0.29 m 11.76,-20.58 c -0.29,-0.22 -1.18,-0.81 -1.84,-1.25 -2.43,-1.62 -4.26,-2.57 -4.26,-4.34 0,-1.1 0.88,-1.91 2.06,-1.91 2.13,0 4.63,1.91 4.63,1.91 3.82,2.79 6.1,7.2 6.1,11.91 0,1.84 -0.29,3.23 -0.51,3.9 0,-2.13 -1.25,-6.98 -6.17,-10.22 m -19.99,14.92 c -1.76,-2.57 -2.72,-5.51 -2.72,-8.6 0,-8.08 6.17,-13.82 13.01,-14.62 -0.15,0.07 -1.84,1.18 -1.84,3.82 0,2.43 1.69,4.56 3.09,6.54 0.37,0.51 0.66,1.03 1.1,1.62 1.1,1.69 2.43,3.9 2.43,6.47 0,4.63 -3.75,8.23 -8.23,8.23 -3.97,0.07 -5.88,-2.13 -6.83,-3.45 m -4.92,-8.6 c 0,9.33 7.57,16.9 16.9,16.9 9.33,0 16.9,-7.57 16.9,-16.9 0,-9.33 -7.57,-16.9 -16.9,-16.9 -9.33,0 -16.9,7.57 -16.9,16.9" />
  <path
     class="cls-2"
     d="m 397.77781,193.73374 c 0,0.88 -0.51,1.62 -1.62,1.62 -1.11,0 -1.62,-0.73 -1.62,-1.62 v -5.44 c 0,-1.47 -0.73,-2.72 -2.43,-2.72 -1.25,0 -2.13,0.73 -2.79,1.25 v 6.91 c 0,0.88 -0.51,1.62 -1.62,1.62 -1.11,0 -1.62,-0.73 -1.62,-1.62 v -10.44 h 2.79 l 0.22,1.4 c 0.51,-0.44 1.98,-1.76 4.26,-1.76 2.06,0 4.48,1.18 4.48,4.26 v 6.54 h -0.07 z m -30.87,-1.76 c 0,0.66 0.51,1.1 1.1,1.1 1.03,0 1.32,-0.81 2.06,-0.81 0.66,0 1.03,0.51 1.03,1.03 0,1.1 -1.32,2.06 -3.67,2.06 -2.65,0 -3.82,-1.54 -3.82,-3.53 v -6.25 h -2.13 v -2.35 h 2.13 v -2.65 l 3.31,-0.88 v 3.6 h 4.34 l -0.81,2.35 h -3.53 v 6.32 z m 37.55,0 c 0,0.66 0.51,1.1 1.1,1.1 1.03,0 1.32,-0.81 2.13,-0.81 0.66,0 1.03,0.51 1.03,1.03 0,1.1 -1.32,2.06 -3.67,2.06 -2.65,0 -3.82,-1.54 -3.82,-3.53 v -6.25 h -2.13 v -2.35 h 2.13 v -2.65 l 3.31,-0.88 v 3.6 h 4.34 l -0.81,2.35 h -3.53 l -0.07,6.32 v 0 z m -55.85,0.51 c 0,-0.73 0.59,-1.25 1.25,-1.25 1.1,0 1.91,1.54 4.7,1.54 1.69,0 2.94,-0.73 2.94,-1.98 0,-1.1 -0.88,-1.76 -2.28,-2.43 -0.44,-0.22 -1.25,-0.59 -1.76,-0.81 -1.91,-0.88 -3.82,-2.13 -3.82,-4.63 0,-2.5 2.13,-4.48 5.88,-4.48 2.72,0 4.34,0.73 4.7,0.96 l -0.81,2.43 c -0.44,-0.22 -2.06,-0.81 -3.75,-0.81 -1.25,0 -2.5,0.59 -2.5,1.84 0,1.18 1.03,1.69 2.35,2.35 0.44,0.22 0.81,0.37 1.25,0.59 2.06,0.96 4.26,2.06 4.26,4.78 0,2.94 -2.79,4.78 -6.47,4.78 -3.38,-0.07 -5.95,-1.4 -5.95,-2.87 m 80.91,2.79 c -4.26,0 -6.76,-2.79 -6.76,-6.17 0,-3.38 2.57,-6.17 6.76,-6.17 2.43,0 3.75,0.88 3.97,1.03 l -0.73,2.13 c -0.22,-0.15 -1.32,-0.88 -2.94,-0.88 -2.43,0 -3.67,1.76 -3.67,3.9 0,2.14 1.32,3.9 3.53,3.9 1.69,0 2.35,-1.1 3.23,-1.1 0.66,0 1.1,0.51 1.1,1.1 0,1.18 -2.06,2.28 -4.48,2.28 m -10.66,-3.23 c -0.88,0 -1.54,1.1 -3.16,1.1 -1.62,0 -2.94,-1.32 -3.09,-2.79 h 8.38 v -0.73 c 0,-3.9 -2.13,-6.61 -5.81,-6.61 -3.68,0 -5.88,2.65 -5.88,6.17 0,3.16 1.91,6.17 6.32,6.17 2.5,0 4.41,-1.1 4.41,-2.2 0,-0.66 -0.37,-1.1 -1.18,-1.1 m -3.75,-6.76 c 1.98,0 2.5,1.62 2.5,2.94 h -5.07 c 0,-1.47 0.73,-2.94 2.57,-2.94 m -32.04,6.39 v -3.9 c 0,-2.87 -1.76,-4.78 -5.59,-4.78 -2.65,0 -4.48,0.96 -4.85,1.18 l 0.96,1.98 c 0.22,-0.07 1.76,-0.81 3.23,-0.81 2.06,0 3.01,1.1 3.01,2.2 v 0.15 l -2.06,0.07 c -3.01,0.15 -5.59,1.1 -5.59,3.9 0,2.28 1.84,3.75 4.34,3.75 2.13,0 3.23,-1.1 3.6,-1.47 0.07,0.22 0.44,1.47 1.98,1.47 0.73,0 1.18,-0.29 1.18,-0.96 0,-0.81 -0.22,-1.25 -0.22,-2.79 m -3.31,0.51 c -0.22,0.15 -1.1,0.88 -2.35,0.88 -1.18,0 -1.91,-0.73 -1.91,-1.69 0,-1.1 0.88,-1.62 2.72,-1.69 l 1.54,-0.07 z"
     id="path1" />
  <path
     class="cls-1"
     d="m 106.66781,17.55374 c -9.880005,-5.8 -21.370005,-9.1300001 -33.660005,-9.1300001 -36.83,0 -66.6899997,29.8600001 -66.6899997,66.6900001 0,23.08 11.7199997,43.41 29.5299997,55.38 l -0.13,-0.1 v -17.92 l 52.78,-63.12 h -48.13 v -31.88 h 66.070005 z m 24.54,90.13 c 5.4,-9.63 8.49,-20.73 8.49,-32.56 0,-9.07 -1.82,-17.72 -5.1,-25.61 l -0.02,0.07 -48.490005,58.09 h 45.120005 z"
     id="path2" />
  <path
     class="cls-2"
     d="m 474.32781,21.55374 v 67.09 h 6.39 v -56.75 h 0.19 l 39.09,56.76 h 7.14 v -67.1 h -6.39 v 56.76 h -0.19 l -39.09,-56.76 z m -67.04,33.55 c 0,-15.6 8.27,-29.51 25.18,-29.51 17.85,0 25.28,14.94 25.28,29.51 0,14.57 -7.71,29.51 -25.18,29.51 -17.47,0 -25.28,-14.75 -25.28,-29.51 m 25.28,-34.96 c -21.05,0 -31.67,16.45 -31.67,34.96 0,18.51 10.71,34.96 31.67,34.96 20.96,0 31.57,-16.82 31.57,-34.96 0,-18.14 -10.71,-34.96 -31.57,-34.96 m -65.91,0 c -21.33,0 -31.67,16.73 -31.67,34.96 0,18.23 10.81,34.96 31.67,34.96 15.32,0 26.12,-10.06 27.91,-26.97 h -6.39 c -1.32,12.78 -9.87,21.52 -21.52,21.52 -17.95,0 -25.28,-15.13 -25.28,-29.51 0,-14.38 7.71,-29.51 25.28,-29.51 9.87,0 18.32,6.02 20.58,16.26 h 6.39 c -1.69,-13.62 -13.81,-21.71 -26.97,-21.71 m -84.31,1.41 v 5.45 h 23.4 v 61.64 h 6.39 v -61.64 h 23.4 v -5.45 z m -51.14,0 v 67.09 h 46.79 v -5.45 h -40.4 v -26.5 h 37.4 v -5.45 h -37.4 v -24.24 h 39.94 v -5.45 z m -56.58,0 v 5.45 h 41.16 l -44.17,56.01 v 5.64 h 52.25 v -5.45 h -45.11 l 44.17,-56.01 v -5.64 z"
     id="path3" />
  <path
     class="cls-1"
     d="m 386.88781,112.43374 v 29.43 h 20.53 v -2.39 h -17.72 v -11.62 h 16.41 v -2.39 h -16.41 v -10.63 h 17.52 v -2.39 h -20.32 z m -25.25,13.97 v -11.58 h 10.51 c 4,0 6.31,2.06 6.31,5.85 0,3.79 -3.01,5.73 -6.31,5.73 z m -2.8,-13.97 v 29.43 h 2.8 v -13.07 h 11.05 c 1.57,0 2.93,0.49 3.84,1.65 0.99,1.28 1.44,3.13 1.61,6.02 0.12,1.98 0.21,4.45 0.82,5.4 h 3.09 c -1.11,-1.28 -1.24,-4.78 -1.32,-6.8 -0.12,-3.09 -0.58,-6.76 -5.2,-7.38 v -0.08 c 3.63,-0.74 5.73,-3.59 5.73,-7.5 0,-5.07 -3.75,-7.67 -9.03,-7.67 h -13.4 z m -29.07,0 v 18.76 c 0,6.64 3.71,11.29 11.42,11.29 7.71,0 11.46,-4.41 11.46,-11.29 v -18.76 h -2.8 v 18.22 c 0,6.35 -2.72,9.44 -8.66,9.44 -5.94,0 -8.61,-3.46 -8.61,-9.4 v -18.26 h -2.8 z m -24.16,0 v 29.43 h 20.53 v -2.39 h -17.73 v -11.62 h 16.41 v -2.39 h -16.41 v -10.63 h 17.52 v -2.39 h -20.32 z m -9.23,29.43 h 2.8 v -29.43 h -2.8 z m -29.64,-29.43 v 29.43 h 2.8 v -24.9 h 0.08 l 17.15,24.9 h 3.13 v -29.43 h -2.8 v 24.9 h -0.08 l -17.15,-24.9 z m -24.39,0 v 29.43 h 20.53 v -2.39 h -17.72 v -11.62 h 16.41 v -2.39 h -16.41 v -10.63 h 17.52 v -2.39 h -20.32 z m -18.63,-0.62 c -9.27,0 -13.89,7.25 -13.89,15.33 0,8.08 4.78,15.34 13.89,15.34 4.66,0 8.37,-2.1 10.18,-5.98 h 0.08 l 0.37,5.36 h 2.02 v -14.97 h -12.49 v 2.39 h 10.02 v 0.25 c 0,6.55 -4.12,10.55 -10.18,10.55 -7.75,0 -11.09,-6.43 -11.09,-12.94 0,-6.51 3.3,-12.94 11.09,-12.94 5.32,0 9.11,3.75 9.48,7.38 h 2.8 c -1.07,-6.31 -5.98,-9.77 -12.29,-9.77 m -42.08,0.62 v 29.43 h 2.8 v -24.9 h 0.08 l 17.15,24.9 h 3.13 v -29.43 h -2.8 v 24.9 h -0.08 l -17.15,-24.9 z m -9.22,29.43 h 2.8 v -29.43 h -2.8 z"
     id="path4" />
  <g
     id="g13"
     transform="translate(6.3178053,8.4237399)">
    <path
       class="cls-2"
       d="m 174.38,174.66 c 0.62,0.7 0.93,1.68 0.93,2.94 v 9.31 h -1.44 v -9.11 c 0,-1.04 -0.21,-1.81 -0.62,-2.29 -0.41,-0.48 -1.03,-0.72 -1.84,-0.72 -0.81,0 -1.56,0.23 -2.2,0.68 -0.64,0.45 -1.25,1.12 -1.83,2 v 9.43 h -1.44 v -13.01 h 1.24 l 0.15,2.21 c 0.53,-0.78 1.16,-1.39 1.89,-1.83 0.73,-0.44 1.55,-0.66 2.46,-0.66 1.18,0 2.08,0.35 2.7,1.05 z"
       id="path5" />
    <path
       class="cls-2"
       d="m 188.99,175.39 c 0.97,1.19 1.46,2.84 1.46,4.96 0,2.12 -0.49,3.77 -1.48,4.99 -0.99,1.22 -2.33,1.83 -4.04,1.83 -1.71,0 -3.07,-0.6 -4.04,-1.8 -0.97,-1.2 -1.46,-2.86 -1.46,-4.96 0,-1.38 0.22,-2.58 0.67,-3.61 0.45,-1.03 1.09,-1.82 1.92,-2.36 0.83,-0.55 1.81,-0.82 2.94,-0.82 1.73,0 3.07,0.59 4.04,1.78 z m -6.98,0.86 c -0.7,0.95 -1.04,2.33 -1.04,4.16 0,1.83 0.34,3.18 1.03,4.13 0.69,0.95 1.66,1.42 2.92,1.42 1.26,0 2.24,-0.47 2.95,-1.42 0.7,-0.95 1.06,-2.34 1.06,-4.18 0,-1.84 -0.34,-3.18 -1.03,-4.12 -0.69,-0.94 -1.67,-1.41 -2.95,-1.41 -1.28,0 -2.24,0.47 -2.94,1.42 z"
       id="path6" />
    <path
       class="cls-2"
       d="m 208.78,173.89 -3.19,13.01 h -1.94 l -2.89,-11.67 -2.94,11.67 h -1.92 l -3.26,-13.01 h 1.49 l 2.79,11.89 3.04,-11.89 h 1.64 l 2.99,11.92 2.76,-11.92 h 1.42 z"
       id="path7" />
    <path
       class="cls-2"
       d="m 227.9,175.37 c 0.79,1.17 1.18,2.82 1.18,4.96 0,2.14 -0.43,3.75 -1.28,4.99 -0.85,1.24 -2.08,1.85 -3.67,1.85 -0.78,0 -1.48,-0.16 -2.12,-0.49 -0.63,-0.32 -1.16,-0.76 -1.59,-1.31 v 6.42 l -1.44,0.2 v -18.12 h 1.24 l 0.12,1.89 c 0.48,-0.68 1.07,-1.21 1.75,-1.59 0.69,-0.38 1.44,-0.57 2.25,-0.57 1.58,0 2.76,0.58 3.55,1.75 z m -1.31,9.17 c 0.63,-0.95 0.95,-2.35 0.95,-4.21 0,-3.68 -1.15,-5.52 -3.46,-5.52 -0.78,0 -1.46,0.2 -2.03,0.6 -0.57,0.4 -1.12,0.95 -1.63,1.64 v 6.92 c 0.86,1.33 2.01,1.99 3.43,1.99 1.19,0 2.11,-0.47 2.74,-1.42 z"
       id="path8" />
    <path
       class="cls-2"
       d="m 241.54,185.48 c 0.17,0.3 0.45,0.52 0.83,0.67 l -0.32,1.02 c -0.6,-0.12 -1.06,-0.34 -1.38,-0.67 -0.32,-0.33 -0.54,-0.84 -0.63,-1.52 -0.9,1.46 -2.25,2.19 -4.06,2.19 -1.24,0 -2.23,-0.35 -2.95,-1.06 -0.72,-0.7 -1.08,-1.65 -1.08,-2.82 0,-1.34 0.48,-2.38 1.43,-3.11 0.95,-0.73 2.28,-1.09 3.97,-1.09 h 2.49 v -1.27 c 0,-1.05 -0.23,-1.8 -0.7,-2.28 -0.46,-0.47 -1.24,-0.71 -2.31,-0.71 -1,0 -2.17,0.25 -3.53,0.75 l -0.37,-1.09 c 1.46,-0.58 2.83,-0.87 4.11,-0.87 2.84,0 4.25,1.38 4.25,4.13 v 6.27 c 0,0.68 0.09,1.17 0.26,1.47 z m -1.7,-1.77 v -3.58 h -2.26 c -1.33,0 -2.34,0.26 -3.04,0.77 -0.7,0.51 -1.05,1.29 -1.05,2.31 0,0.9 0.24,1.58 0.72,2.07 0.48,0.48 1.15,0.72 2.02,0.72 1.56,0 2.76,-0.76 3.61,-2.29 z"
       id="path9" />
    <path
       class="cls-2"
       d="m 252.88,173.76 -0.27,1.37 c -0.36,-0.1 -0.75,-0.15 -1.14,-0.15 -0.88,0 -1.59,0.32 -2.13,0.96 -0.54,0.64 -0.99,1.64 -1.36,3 v 7.96 h -1.44 v -13.01 h 1.24 l 0.12,2.91 c 0.35,-1.08 0.82,-1.88 1.43,-2.4 0.61,-0.52 1.36,-0.78 2.25,-0.78 0.51,0 0.95,0.05 1.29,0.15 z"
       id="path10" />
    <path
       class="cls-2"
       d="m 261.73,186.35 c -0.83,0.55 -1.74,0.82 -2.74,0.82 -1,0 -1.78,-0.29 -2.34,-0.88 -0.56,-0.59 -0.85,-1.44 -0.85,-2.55 v -8.68 h -2.19 v -1.17 h 2.19 v -3.11 l 1.44,-0.17 v 3.29 h 3.36 l -0.17,1.17 h -3.19 v 8.61 c 0,0.76 0.16,1.33 0.47,1.7 0.31,0.37 0.8,0.56 1.44,0.56 0.64,0 1.33,-0.19 1.99,-0.57 l 0.57,1 z"
       id="path11" />
    <path
       class="cls-2"
       d="m 279.76,175.39 c 0.97,1.19 1.46,2.84 1.46,4.96 0,2.12 -0.49,3.77 -1.48,4.99 -0.99,1.22 -2.33,1.83 -4.04,1.83 -1.71,0 -3.07,-0.6 -4.04,-1.8 -0.97,-1.2 -1.46,-2.86 -1.46,-4.96 0,-1.38 0.22,-2.58 0.67,-3.61 0.45,-1.03 1.09,-1.82 1.92,-2.36 0.83,-0.55 1.81,-0.82 2.94,-0.82 1.73,0 3.07,0.59 4.04,1.78 z m -6.98,0.86 c -0.7,0.95 -1.04,2.33 -1.04,4.16 0,1.83 0.34,3.18 1.03,4.13 0.69,0.95 1.66,1.42 2.92,1.42 1.26,0 2.24,-0.47 2.95,-1.42 0.71,-0.95 1.06,-2.34 1.06,-4.18 0,-1.84 -0.34,-3.18 -1.03,-4.12 -0.69,-0.94 -1.67,-1.41 -2.95,-1.41 -1.28,0 -2.24,0.47 -2.94,1.42 z"
       id="path12" />
    <path
       class="cls-2"
       d="m 287.6,170.13 c -0.37,0.35 -0.56,0.9 -0.56,1.67 v 2.09 h 3.43 l -0.2,1.17 h -3.23 v 11.84 h -1.44 v -11.84 h -2.26 v -1.17 h 2.26 v -2.14 c 0,-1.03 0.32,-1.84 0.96,-2.44 0.64,-0.6 1.52,-0.9 2.65,-0.9 1.01,0 2.02,0.23 3.04,0.7 l -0.5,1.07 c -0.86,-0.38 -1.68,-0.57 -2.46,-0.57 -0.78,0 -1.31,0.17 -1.68,0.52 z"
       id="path13" />
  </g>
</svg>
